<svg width="100" height="100" viewBox="0 0 100 100" fill="none" xmlns="http://www.w3.org/2000/svg">
<path d="M66.6692 38.4098C66.5241 37.8905 65.9818 37.5926 65.4777 37.7225C64.9584 37.8676 64.6605 38.4098 64.8056 38.9139C64.9507 39.4333 65.4777 39.7312 65.9818 39.586C66.5012 39.4486 66.8067 38.9139 66.6692 38.4098ZM66.6692 38.4098C66.5241 37.8905 65.9818 37.5926 65.4777 37.7225C64.9584 37.8676 64.6605 38.4098 64.8056 38.9139C64.9507 39.4333 65.4777 39.7312 65.9818 39.586C66.5012 39.4486 66.8067 38.9139 66.6692 38.4098ZM66.6692 38.4098C66.5241 37.8905 65.9818 37.5926 65.4777 37.7225C64.9584 37.8676 64.6605 38.4098 64.8056 38.9139C64.9507 39.4333 65.4777 39.7312 65.9818 39.586C66.5012 39.4486 66.8067 38.9139 66.6692 38.4098ZM66.6692 38.4098C66.5241 37.8905 65.9818 37.5926 65.4777 37.7225C64.9584 37.8676 64.6605 38.4098 64.8056 38.9139C64.9507 39.4333 65.4777 39.7312 65.9818 39.586C66.5012 39.4486 66.8067 38.9139 66.6692 38.4098ZM49.9962 0C22.3784 0 0 22.3937 0 50.0115C0 59.696 2.7572 68.739 7.53838 76.3996L16.4134 69.984L16.6043 69.8618L16.7723 69.7548L17.0626 69.5486L17.2688 69.3959L17.4368 69.2737L17.4292 69.3042C18.9185 68.212 20.4079 67.1351 21.8972 66.0506L26.3041 62.8504L35.1562 56.4576L40.2047 52.8068L41.0066 52.234L42.5189 51.1418L43.909 50.1413L45.7267 48.82L46.8953 47.9722L47.85 47.2772L48.1555 47.048L48.5068 46.7807L49.1942 48.4763C46.017 51.1418 34.1327 61.6207 22.5464 71.9163C22.5464 71.9163 22.47 71.9698 22.3402 72.092C20.8203 73.5049 11.235 82.9604 20.6217 90.3918C20.7897 90.5217 20.9196 90.6362 21.0418 90.7431V90.7508C29.2141 96.5707 39.1965 100 50.0038 100C77.6216 100 100 77.6064 100 50.0038C99.9924 22.3936 77.614 0 49.9962 0ZM50.9891 45.3372C50.7676 44.8102 50.8745 44.1992 51.3175 43.8708L57.3589 39.25C57.8783 38.8528 58.6726 39.0056 59.1308 39.6013C59.5815 40.1971 59.5204 40.999 58.9857 41.3962L52.9443 46.0246C52.5243 46.3454 51.9285 46.2995 51.4626 45.9559C51.4779 45.9635 51.4779 45.9864 51.4779 46.0093C51.6001 46.8342 50.1184 48.1173 50.1184 48.1173L49.2248 45.8795C49.9504 45.3219 50.5843 45.1768 50.9891 45.3372ZM28.9926 70.5797C30.0771 67.6774 38.4939 61.1166 38.6313 61.025C38.6084 61.0937 38.6542 61.468 37.3406 62.6442C36.2026 63.6676 32.1393 68.2044 34.2091 67.074C36.1262 66.0276 38.4633 64.8056 38.6772 64.6605C36.1262 67.265 27.9004 73.4897 28.9926 70.5797ZM39.8686 64.0571L39.3416 60.4751C39.3416 60.4751 42.939 58.2143 43.3361 59.7571C43.7104 61.2999 39.8686 64.0571 39.8686 64.0571ZM67.4177 42.8397C67.6087 43.6416 67.4865 44.5734 66.9518 45.5205C65.2181 48.5832 49.3012 57.0992 45.3448 59.169C45.3448 59.1767 45.3372 59.1767 45.3219 59.1767C44.772 59.4745 44.4665 59.6273 44.4665 59.6273L44.4512 59.5967C44.4283 59.528 44.4283 59.4669 44.4283 59.3905C44.4283 59.3905 44.4283 59.3905 44.4283 59.3829C44.4283 58.3212 45.826 56.9541 47.2619 55.4495C49.6754 52.9061 52.6617 50.2482 52.6617 50.0573C52.5624 49.8511 44.7644 55.1363 44.161 55.5564C47.4605 52.6999 56.5569 44.8484 59.5815 42.3432C59.7037 42.2592 59.8106 42.1523 59.9099 42.0683C60.0015 41.9919 60.1008 41.9155 60.2077 41.8468C60.6278 41.5566 61.193 41.4802 61.7047 41.6788C62.5449 42.0225 62.9726 42.9772 62.6442 43.8479C62.415 44.436 61.8804 44.7949 61.2923 44.8713C62.4609 45.1921 63.7211 44.6269 64.1717 43.4736C64.2786 43.1757 64.3245 42.8779 64.3245 42.58C64.3168 41.7322 63.8509 40.9379 63.0871 40.5178C62.9879 40.4644 62.9115 40.4109 62.7969 40.3727C62.5907 40.2811 62.3539 40.2429 62.1324 40.22C62.079 40.0901 62.0332 39.945 61.9873 39.7923C61.3381 37.4628 62.7129 35.0493 65.0424 34.4001C66.3179 34.0564 67.6316 34.3008 68.655 34.9958L66.1193 36.9587C66.6921 37.0885 67.1809 37.5315 67.3566 38.1043C67.3642 38.1349 67.3642 38.1731 67.3795 38.2036C67.4024 38.28 67.4101 38.3564 67.4253 38.4328C67.5323 39.1278 69.2355 39.5097 70.4575 39.7006C70.0833 41.1747 68.9682 42.4043 67.4177 42.8397ZM84.2282 28.2899C82.1584 28.2899 80.4705 29.9626 80.4705 32.04C80.4705 32.1851 80.3559 32.2921 80.2261 32.2921C80.081 32.2921 79.9817 32.1851 79.9817 32.04C79.9817 29.9702 78.2938 28.2899 76.2239 28.2899C76.0941 28.2899 75.9719 28.183 75.9719 28.0379C75.9719 27.8928 76.0941 27.7858 76.2239 27.7858C78.2938 27.7858 79.9817 26.1132 79.9817 24.0357C79.9817 23.9059 80.081 23.7913 80.2261 23.7913C80.3559 23.7913 80.4705 23.8983 80.4705 24.0357C80.4705 26.1056 82.1584 27.7858 84.2282 27.7858C84.3581 27.7858 84.4803 27.8928 84.4803 28.0379C84.4803 28.183 84.3581 28.2899 84.2282 28.2899ZM65.4777 37.7301C64.9584 37.8752 64.6605 38.4175 64.8056 38.9216C64.9507 39.4409 65.4777 39.7388 65.9818 39.5937C66.5012 39.4486 66.8067 38.9216 66.6692 38.4175C66.5241 37.8905 65.9818 37.5926 65.4777 37.7301ZM66.6692 38.4098C66.5241 37.8905 65.9818 37.5926 65.4777 37.7225C64.9584 37.8676 64.6605 38.4098 64.8056 38.9139C64.9507 39.4333 65.4777 39.7312 65.9818 39.586C66.5012 39.4486 66.8067 38.9139 66.6692 38.4098ZM66.6692 38.4098C66.5241 37.8905 65.9818 37.5926 65.4777 37.7225C64.9584 37.8676 64.6605 38.4098 64.8056 38.9139C64.9507 39.4333 65.4777 39.7312 65.9818 39.586C66.5012 39.4486 66.8067 38.9139 66.6692 38.4098ZM66.6692 38.4098C66.5241 37.8905 65.9818 37.5926 65.4777 37.7225C64.9584 37.8676 64.6605 38.4098 64.8056 38.9139C64.9507 39.4333 65.4777 39.7312 65.9818 39.586C66.5012 39.4486 66.8067 38.9139 66.6692 38.4098ZM66.6692 38.4098C66.5241 37.8905 65.9818 37.5926 65.4777 37.7225C64.9584 37.8676 64.6605 38.4098 64.8056 38.9139C64.9507 39.4333 65.4777 39.7312 65.9818 39.586C66.5012 39.4486 66.8067 38.9139 66.6692 38.4098Z" fill="#FE3B1F"/>
</svg>
